<?xml version="1.0" encoding="utf-8"?>
<!-- Generator: Adobe Illustrator 23.0.2, SVG Export Plug-In . SVG Version: 6.00 Build 0)  -->
<svg version="1.1" id="Layer_1" xmlns="http://www.w3.org/2000/svg" xmlns:xlink="http://www.w3.org/1999/xlink" x="0px" y="0px"
	 viewBox="0 0 54 68.7" style="enable-background:new 0 0 54 68.7;" xml:space="preserve">
<style type="text/css">
	.st0{fill:#1DB0BF;}
</style>
<g transform="translate(-546.508 -36.976)">
	<path class="st0" d="M598.1,105.7h-49.1c-0.9,0-1.6-0.5-2.1-1.2c-0.4-0.7-0.4-1.6,0-2.4l17.3-30.8l-17.3-30.8
		c-0.4-0.7-0.4-1.7,0-2.4c0.4-0.7,1.2-1.2,2.1-1.2h49.1c0.9,0,1.6,0.5,2.1,1.2c0.4,0.7,0.4,1.6,0,2.4l-17.3,30.8l17.3,30.8
		c0.4,0.7,0.4,1.7,0,2.4C599.7,105.3,598.9,105.7,598.1,105.7z M553,100.9h40.9l-16-28.4c-0.4-0.7-0.4-1.6,0-2.4l16-28.4H553
		l16,28.4c0.4,0.7,0.4,1.6,0,2.4L553,100.9z"/>
	<path class="st0" d="M564.3,53.2h18.3l-9,16L564.3,53.2z"/>
	<path class="st0" d="M569.2,89.5c1.4,1,3,1.5,4.7,1.6c1.3,0,1.9-0.4,1.9-1.2c0-2.2-7.6-1.8-7.6-6.6c0-2.6,2.3-4.3,5.7-4.3
		c2,0,3.9,0.8,5.3,2.2l-1.9,2.2c-1-0.8-2.3-1.3-3.6-1.3c-1.2,0-1.8,0.4-1.8,1.2c0,1.9,7.6,1.6,7.6,6.4c0,2.6-2.2,4.6-6.2,4.6
		c-2.1,0-4.2-0.8-5.8-2.1L569.2,89.5z M572.5,75.7h2.5v4.5h-2.5V75.7z M575,92.7V98h-2.5v-5.3H575z"/>
</g>
</svg>
