<?xml version="1.0" encoding="utf-8"?>
<!-- Generator: Adobe Illustrator 23.0.2, SVG Export Plug-In . SVG Version: 6.00 Build 0)  -->
<svg version="1.1" id="Layer_1" xmlns="http://www.w3.org/2000/svg" xmlns:xlink="http://www.w3.org/1999/xlink" x="0px" y="0px"
	 viewBox="0 0 73.8 75.6" style="enable-background:new 0 0 73.8 75.6;" xml:space="preserve">
<style type="text/css">
	.st0{fill:#68746E;}
</style>
<g transform="translate(-738.789 -138.412)">
	<path class="st0" d="M782.3,206.3h-13c-1.1,0-2.1-0.8-2.4-1.9l-2.4-9.7c-5.8-4.6-9.3-11.6-9.5-19l0-0.3c0.1-11.5,9.5-20.8,21-20.7
		c11.5,0.1,20.8,9.5,20.7,21c0,0,0,0,0,0c-0.1,7.4-3.7,14.5-9.5,19l-2.4,9.7C784.4,205.5,783.4,206.3,782.3,206.3z M771.2,201.3h9.1
		l2.2-8.7c0.1-0.6,0.5-1.1,1-1.4c5-3.6,8-9.5,8.2-15.6c0.1-8.7-7-15.9-15.7-15.9c0,0-0.1,0-0.1,0c-8.7,0-15.8,7-15.8,15.7v0.2
		c0.1,6.1,3.2,12,8.2,15.6c0.5,0.3,0.8,0.8,1,1.4L771.2,201.3z M794.1,175.7L794.1,175.7L794.1,175.7z"/>
	<path class="st0" d="M768.9,208.7h13.6c1,0,1.8,0.8,1.8,1.8v1.7c0,1-0.8,1.8-1.8,1.8h-13.6c-1,0-1.8-0.8-1.8-1.8v-1.7
		C767.1,209.5,767.9,208.7,768.9,208.7z"/>
	<path class="st0" d="M775.7,152.6c-1.4,0-2.5-1.1-2.5-2.5v-9.2c0-1.4,1.1-2.5,2.5-2.5c1.4,0,2.5,1.1,2.5,2.5v9.2
		C778.2,151.5,777.1,152.6,775.7,152.6z"/>
	<path class="st0" d="M750.5,178.2h-9.2c-1.4,0-2.5-1.1-2.5-2.5s1.1-2.5,2.5-2.5h9.2c1.4,0,2.5,1.1,2.5,2.5S751.9,178.2,750.5,178.2
		z"/>
	<path class="st0" d="M757,159.1c-0.6,0-1.3-0.2-1.8-0.7l-6.5-6.5c-1-1-1-2.6,0-3.5c1-1,2.6-1,3.5,0l6.5,6.5c1,1,1,2.6,0,3.5
		C758.3,158.9,757.7,159.1,757,159.1z"/>
	<path class="st0" d="M810.1,178.2h-9.2c-1.4,0-2.5-1.1-2.5-2.5s1.1-2.5,2.5-2.5h9.2c1.4,0,2.5,1.1,2.5,2.5S811.5,178.2,810.1,178.2
		z"/>
	<path class="st0" d="M794.4,159.1c-0.6,0-1.3-0.2-1.8-0.7c-1-1-1-2.6,0-3.5l6.5-6.5c1-1,2.6-1,3.5,0c1,1,1,2.6,0,3.5l-6.5,6.5
		C795.6,158.9,795,159.1,794.4,159.1z"/>
</g>
</svg>
