<?xml version="1.0" encoding="utf-8"?>
<!-- Generator: Adobe Illustrator 23.0.2, SVG Export Plug-In . SVG Version: 6.00 Build 0)  -->
<svg version="1.1" id="Layer_1" xmlns="http://www.w3.org/2000/svg" xmlns:xlink="http://www.w3.org/1999/xlink" x="0px" y="0px"
	 viewBox="0 0 75.1 71.9" style="enable-background:new 0 0 75.1 71.9;" xml:space="preserve">
<style type="text/css">
	.st0{fill:#1DB0BF;}
</style>
<g id="icono-programa-hibrido" transform="translate(-127.751 -63.641)">
	<path class="st0" d="M165.6,115.4c-14.3,0-25.9-11.6-25.9-25.9c0-14.3,11.6-25.9,25.9-25.9s25.9,11.6,25.9,25.9
		C191.5,103.8,179.9,115.4,165.6,115.4z M165.6,68.6c-11.5,0-20.9,9.4-20.9,20.9c0,11.5,9.4,20.9,20.9,20.9s20.9-9.4,20.9-20.9
		C186.5,78,177.1,68.6,165.6,68.6z"/>
	<path class="st0" d="M153.6,135.6c-14.3,0-25.9-11.6-25.9-25.9c0-14.3,11.6-25.9,25.9-25.9c14.3,0,25.9,11.6,25.9,25.9
		C179.5,124,167.9,135.6,153.6,135.6z M153.6,88.8c-11.5,0-20.9,9.4-20.9,20.9c0,11.5,9.4,20.9,20.9,20.9s20.9-9.4,20.9-20.9
		C174.5,98.2,165.1,88.8,153.6,88.8z"/>
	<path class="st0" d="M177,135.6c-14.3,0-25.9-11.6-25.9-25.9c0-14.3,11.6-25.9,25.9-25.9c14.3,0,25.9,11.6,25.9,25.9
		C202.9,124,191.3,135.6,177,135.6z M177,88.8c-11.5,0-20.9,9.4-20.9,20.9c0,11.5,9.4,20.9,20.9,20.9c11.5,0,20.9-9.4,20.9-20.9
		C197.9,98.2,188.5,88.8,177,88.8z"/>
</g>
</svg>
