<?xml version="1.0" encoding="utf-8"?>
<!-- Generator: Adobe Illustrator 23.0.2, SVG Export Plug-In . SVG Version: 6.00 Build 0)  -->
<svg version="1.1" id="Layer_1" xmlns="http://www.w3.org/2000/svg" xmlns:xlink="http://www.w3.org/1999/xlink" x="0px" y="0px"
	 viewBox="0 0 57.1 67.7" style="enable-background:new 0 0 57.1 67.7;" xml:space="preserve">
<style type="text/css">
	.st0{fill:#777777;}
</style>
<g transform="translate(-6770.5 -15739.5)">
	<g transform="translate(6383.778 15593.833)">
		<path class="st0" d="M389.2,189.4c-0.8,0-1.6-0.4-2.1-1.1c-0.8-1.1-0.5-2.7,0.6-3.5l47.7-33l-4.5-1.3c-1.3-0.4-2.1-1.8-1.7-3.1
			c0.4-1.3,1.8-2.1,3.1-1.7l9.5,2.8c0.9,0.3,1.6,1,1.8,2c0.2,1-0.3,1.9-1,2.5l-52,36C390.2,189.3,389.7,189.4,389.2,189.4z"/>
		<path class="st0" d="M440.6,162.8c-0.1,0-0.1,0-0.2,0c-1.4-0.1-2.4-1.3-2.3-2.6l0.6-9.4c0.1-1.4,1.3-2.4,2.6-2.3
			c1.4,0.1,2.4,1.3,2.3,2.6l-0.6,9.4C443,161.8,441.9,162.8,440.6,162.8z"/>
		<path class="st0" d="M400.7,213.4h-10.3c-1.4,0-2.5-1.1-2.5-2.5v-14c0-1.4,1.1-2.5,2.5-2.5h10.3c1.4,0,2.5,1.1,2.5,2.5v14
			C403.2,212.3,402.1,213.4,400.7,213.4z M392.9,208.4h5.3v-9h-5.3V208.4z"/>
		<path class="st0" d="M420.6,213.4h-10.3c-1.4,0-2.5-1.1-2.5-2.5v-26c0-1.4,1.1-2.5,2.5-2.5h10.3c1.4,0,2.5,1.1,2.5,2.5v26
			C423.1,212.3,422,213.4,420.6,213.4z M412.8,208.4h5.3v-21h-5.3V208.4z"/>
		<path class="st0" d="M440.6,213.4h-10.4c-1.4,0-2.5-1.1-2.5-2.5v-38c0-1.4,1.1-2.5,2.5-2.5h10.4c1.4,0,2.5,1.1,2.5,2.5v38
			C443.1,212.3,442,213.4,440.6,213.4z M432.7,208.4h5.4v-33h-5.4V208.4z"/>
	</g>
</g>
</svg>
