<?xml version="1.0" encoding="utf-8"?>
<!-- Generator: Adobe Illustrator 23.0.2, SVG Export Plug-In . SVG Version: 6.00 Build 0)  -->
<svg version="1.1" id="Layer_1" xmlns="http://www.w3.org/2000/svg" xmlns:xlink="http://www.w3.org/1999/xlink" x="0px" y="0px"
	 viewBox="0 0 72.8 68.3" style="enable-background:new 0 0 72.8 68.3;" xml:space="preserve">
<style type="text/css">
	.st0{fill:#1DB0BF;}
</style>
<g transform="translate(-631.597 -1490.597)">
	<g transform="translate(256.14 1447.669)">
		<path class="st0" d="M387.2,66.5c-6.5,0-11.8-5.3-11.8-11.8c0-6.5,5.3-11.8,11.8-11.8c6.5,0,11.8,5.3,11.8,11.8
			C399,61.2,393.7,66.5,387.2,66.5z M387.2,47.7c-3.8,0-7,3.1-7,7c0,3.8,3.1,7,7,7c3.8,0,7-3.1,7-7
			C394.2,50.9,391.1,47.7,387.2,47.7z"/>
		<path class="st0" d="M434.3,83.7c-7.7,0-14-6.3-14-14c0-7.7,6.3-14,14-14c7.7,0,14,6.3,14,14C448.3,77.4,442,83.7,434.3,83.7z
			 M434.3,60.6c-5,0-9.1,4.1-9.1,9.1c0,5,4.1,9.1,9.1,9.1s9.1-4.1,9.1-9.1C443.5,64.7,439.4,60.6,434.3,60.6z"/>
		<path class="st0" d="M399.6,111.2c-5.4,0-9.9-4.4-9.9-9.9s4.4-9.9,9.9-9.9s9.9,4.4,9.9,9.9S405,111.2,399.6,111.2z M399.6,96.3
			c-2.8,0-5.1,2.3-5.1,5s2.3,5,5.1,5c2.8,0,5-2.3,5-5S402.4,96.3,399.6,96.3z"/>
		<path class="st0" d="M423.5,68.1c-0.2,0-0.4,0-0.7-0.1l-26.6-7.5c-1.3-0.4-2-1.7-1.7-3c0.4-1.3,1.7-2,3-1.7l26.6,7.5
			c1.3,0.4,2,1.7,1.7,3C425.5,67.4,424.6,68.1,423.5,68.1z"/>
		<path class="st0" d="M407,98.5c-0.6,0-1.3-0.3-1.8-0.8c-0.9-1-0.9-2.5,0.1-3.4l19.3-18c1-0.9,2.5-0.9,3.4,0.1
			c0.9,1,0.9,2.5-0.1,3.4l-19.3,18C408.2,98.3,407.6,98.5,407,98.5z"/>
		<path class="st0" d="M397.6,95.2c-1.1,0-2.1-0.7-2.3-1.9l-6.7-28.8c-0.3-1.3,0.5-2.6,1.8-2.9c1.3-0.3,2.6,0.5,2.9,1.8l6.7,28.8
			c0.3,1.3-0.5,2.6-1.8,2.9C397.9,95.2,397.8,95.2,397.6,95.2z"/>
	</g>
</g>
</svg>
