<?xml version="1.0" encoding="utf-8"?>
<!-- Generator: Adobe Illustrator 23.0.2, SVG Export Plug-In . SVG Version: 6.00 Build 0)  -->
<svg version="1.1" id="Layer_1" xmlns="http://www.w3.org/2000/svg" xmlns:xlink="http://www.w3.org/1999/xlink" x="0px" y="0px"
	 viewBox="0 0 72.9 70" style="enable-background:new 0 0 72.9 70;" xml:space="preserve">
<style type="text/css">
	.st0{fill:#1DB0BF;}
</style>
<g transform="translate(-139.74 -161.411)">
	<path class="st0" d="M205.5,231.4c-1.6,0-3.3-0.4-4.4-1.6l-10.7-9.9h-38.1c-6.9,0-12.5-5.6-12.5-12.5v-33.5
		c0-6.9,5.6-12.5,12.5-12.5h47.8c0,0,0,0,0,0c6.9,0,12.5,5.6,12.5,12.5v52.3c0,0.1,0,0.1,0,0.2c-0.2,1.9-1.6,3.5-3.9,4.4
		C207.8,231.2,206.6,231.4,205.5,231.4z M191.4,214.9c0.6,0,1.2,0.2,1.7,0.7l11.5,10.6c0.6,0.4,2.5,0.1,3.1-0.4v-51.9
		c0-4.1-3.4-7.5-7.5-7.5h-47.8c-4.1,0-7.5,3.4-7.5,7.5v33.4c0,4.1,3.4,7.5,7.5,7.5H191.4z"/>
	<path class="st0" d="M173.9,199.5h-11.4v-19.2h11.4v4.2h-6.2v3h5.7v4.2h-5.7v3.6h6.2V199.5z"/>
	<path class="st0" d="M189.8,193.7c0,1.1-0.3,2.2-0.9,3.2c-0.6,1-1.5,1.7-2.6,2.1c-1.3,0.5-2.6,0.8-4,0.8c-1.1,0-2.2-0.1-3.2-0.3
		c-0.9-0.2-1.8-0.5-2.7-0.9v-4.6c1,0.5,2,0.9,3.1,1.2c1,0.3,1.9,0.4,2.9,0.4c0.6,0,1.2-0.1,1.7-0.4c0.3-0.2,0.5-0.6,0.5-1
		c0-0.2-0.1-0.5-0.2-0.7c-0.2-0.2-0.4-0.4-0.7-0.6c-0.3-0.2-1.2-0.6-2.6-1.2c-1-0.4-2-1-2.8-1.7c-0.6-0.5-1.1-1.1-1.4-1.8
		c-0.3-0.8-0.5-1.6-0.5-2.5c-0.1-1.6,0.6-3.2,1.9-4.1c1.6-1.1,3.4-1.6,5.3-1.5c2.1,0,4.2,0.5,6.1,1.4l-1.6,4c-1.4-0.7-3-1.2-4.6-1.2
		c-0.5,0-1,0.1-1.5,0.4c-0.3,0.2-0.5,0.5-0.5,0.9c0,0.4,0.2,0.8,0.6,1c1,0.6,2.1,1.2,3.2,1.6c1.3,0.5,2.5,1.3,3.4,2.4
		C189.5,191.4,189.9,192.5,189.8,193.7z"/>
</g>
</svg>
