<?xml version="1.0" encoding="utf-8"?>
<!-- Generator: Adobe Illustrator 23.0.2, SVG Export Plug-In . SVG Version: 6.00 Build 0)  -->
<svg version="1.1" id="Layer_1" xmlns="http://www.w3.org/2000/svg" xmlns:xlink="http://www.w3.org/1999/xlink" x="0px" y="0px"
	 viewBox="0 0 65.5 74.3" style="enable-background:new 0 0 65.5 74.3;" xml:space="preserve">
<style type="text/css">
	.st0{fill:#1DB0BF;}
</style>
<g transform="translate(-609.287 -1610.597)">
	<g transform="translate(274.966 1572.673)">
		<path class="st0" d="M370.1,112.2h-35.8l0.3-2.7c0.1-1,3.1-24.1,17.6-24.1c14.5,0,17.4,23.1,17.6,24.1L370.1,112.2z M339.9,107.4
			h24.6c-1.1-5.4-4.5-17.1-12.3-17.1S341.1,102,339.9,107.4z"/>
		<path class="st0" d="M352.2,88.7c-6.5,0-11.7-5.3-11.7-11.7s5.3-11.7,11.7-11.7s11.7,5.3,11.7,11.7S358.7,88.7,352.2,88.7z
			 M352.2,70c-3.8,0-6.9,3.1-6.9,6.9c0,3.8,3.1,6.9,6.9,6.9s6.9-3.1,6.9-6.9C359.1,73.1,356,70,352.2,70z"/>
		<path class="st0" d="M399.9,112.2h-35.8l0.3-2.7c0.1-1,3.1-24.1,17.6-24.1c14.5,0,17.4,23.1,17.6,24.1L399.9,112.2z M369.7,107.4
			h24.6c-1.1-5.4-4.5-17.1-12.3-17.1S370.8,102,369.7,107.4z"/>
		<path class="st0" d="M382,88.7c-6.5,0-11.7-5.3-11.7-11.7s5.3-11.7,11.7-11.7s11.7,5.3,11.7,11.7S388.5,88.7,382,88.7z M382,70
			c-3.8,0-6.9,3.1-6.9,6.9c0,3.8,3.1,6.9,6.9,6.9s6.9-3.1,6.9-6.9C388.9,73.1,385.8,70,382,70z"/>
		<path class="st0" d="M371.7,65.2c-0.9,0-1.9-0.3-2.6-1l-3.2-3h-12.6c-3.2,0-5.9-2.6-5.9-5.9V43.8c0-3.2,2.6-5.9,5.9-5.9h16.5
			c0,0,0,0,0,0c3.2,0,5.9,2.6,5.9,5.9v18.1c0,0.1,0,0.1,0,0.2c-0.1,1.3-1,2.3-2.3,2.8C372.8,65.1,372.3,65.2,371.7,65.2z
			 M372.3,60.7L372.3,60.7C372.4,60.7,372.3,60.7,372.3,60.7z M366.8,56.4c0.6,0,1.2,0.2,1.6,0.6l2.5,2.3V43.8
			c0-0.6-0.5-1.1-1.1-1.1h-16.5c-0.6,0-1.1,0.5-1.1,1.1v11.6c0,0.6,0.5,1.1,1.1,1.1H366.8z"/>
	</g>
</g>
</svg>
