<?xml version="1.0" encoding="utf-8"?>
<!-- Generator: Adobe Illustrator 23.0.2, SVG Export Plug-In . SVG Version: 6.00 Build 0)  -->
<svg version="1.1" id="Layer_1" xmlns="http://www.w3.org/2000/svg" xmlns:xlink="http://www.w3.org/1999/xlink" x="0px" y="0px"
	 viewBox="0 0 75.8 75" style="enable-background:new 0 0 75.8 75;" xml:space="preserve">
<style type="text/css">
	.st0{fill:#777777;}
</style>
<g transform="translate(-6761.5 -15736.5)">
	<g transform="translate(6303.741 15598.119)">
		<path class="st0" d="M470.7,187c-7.2,0-13-5.8-13-13c0-7.2,5.8-13,13-13s13,5.8,13,13C483.7,181.1,477.9,187,470.7,187z
			 M470.7,166c-4.4,0-8,3.6-8,8c0,4.4,3.6,8,8,8s8-3.6,8-8C478.7,169.6,475.1,166,470.7,166z"/>
		<path class="st0" d="M519.2,164.3c-7.2,0-13-5.8-13-13s5.8-13,13-13s13,5.8,13,13S526.4,164.3,519.2,164.3z M519.2,143.4
			c-4.4,0-8,3.6-8,8s3.6,8,8,8s8-3.6,8-8S523.6,143.4,519.2,143.4z"/>
		<path class="st0" d="M516.6,213.4c-7.2,0-13-5.8-13-13s5.8-13,13-13s13,5.8,13,13S523.7,213.4,516.6,213.4z M516.6,192.4
			c-4.4,0-8,3.6-8,8s3.6,8,8,8s8-3.6,8-8S521,192.4,516.6,192.4z"/>
		<path class="st0" d="M501.3,207.3c-12.5,0-23.9-7.3-29.2-18.6c-0.6-1.3,0-2.7,1.2-3.3c1.2-0.6,2.7,0,3.3,1.2
			c4.5,9.5,14.1,15.7,24.7,15.7c0,0,0,0,0,0c1.2,0,1.3,0,1.8-0.2c0.4-0.2,1-0.4,1.9-0.6c1.3-0.3,2.7,0.5,3,1.8
			c0.3,1.3-0.5,2.7-1.8,3c-0.7,0.2-1.1,0.3-1.4,0.4C503.9,207.1,503.2,207.3,501.3,207.3C501.3,207.3,501.3,207.3,501.3,207.3z"/>
		<path class="st0" d="M525.5,195c-0.5,0-1-0.2-1.5-0.5c-1.1-0.8-1.4-2.4-0.6-3.5c6.1-8.5,6.8-20,1.7-29.2c-0.7-1.2-0.2-2.7,1-3.4
			c1.2-0.7,2.7-0.2,3.4,1c6,10.9,5.2,24.4-2,34.5C527,194.6,526.3,195,525.5,195z"/>
		<path class="st0" d="M473.8,166.4c-0.3,0-0.6-0.1-0.9-0.2c-1.3-0.5-1.9-2-1.4-3.3c6-14.8,22.2-23.1,37.7-19.2
			c1.3,0.3,2.2,1.7,1.8,3c-0.3,1.3-1.7,2.2-3,1.8c-13.1-3.3-26.8,3.7-31.9,16.2C475.7,165.9,474.7,166.4,473.8,166.4z"/>
	</g>
</g>
</svg>
