<svg xmlns="http://www.w3.org/2000/svg" width="340" height="63.635" viewBox="0 0 340 63.635"><g transform="translate(-114 -99)"><g transform="translate(100.84 86.386)"><path d="M27.854,38.931c-1.932,0-2.484.277-2.484,1.794V53.072c0,.622.207,4.484.828,5.175.759.828,2.966,1.31,5.175,1.31,5.242,0,9.105-3.588,9.105-9.589,0-6.209-5.1-11.038-12.623-11.038m2.275-19.245c-4.553,0-4.759.621-4.759,2v14.97c0,1.1.9.966,2.552.966a55.559,55.559,0,0,1,7.105.414c2-1.517,4.277-2.828,4.277-8.278,0-3.449-2.9-10.072-9.175-10.072m.9,41.114c-2.9,0-5.795-.69-8.83-.69-2.9,0-4.415.276-6.622.276-.69,0-1.172-.07-1.172-.759s.414-.828,1.931-.828c3.1,0,3.243-.137,3.243-1.171V25.894c0-5.449-1.1-6.07-3.035-6.07-3.1,0-3.38-.07-3.38-.9,0-.483.206-.552,1.379-.552,2.139,0,4.277.069,6.692.069,1.448,0,4.76-.414,10.968-.414,8.969,0,12.831,4.622,12.831,9.519s-2.966,7.313-5.174,8.83a23.689,23.689,0,0,0-2.829,1.863c0,.138,1.311.483,2.691,1.172,3.242,1.656,7.313,4,7.313,10,0,7.726-6.416,11.382-16,11.382" fill="#003262"/><path d="M78.621,45.444c-4.56,0-6,6.839-6,7.68,0,.3,0,.36.721.36,3.12,0,6.36-.781,10.86-1.5.66-.12.721-.24.721-.6,0-1.5-3.54-5.939-6.3-5.939m9.24,7.2a93.182,93.182,0,0,1-14.4,2.1c-.961.06-1.141.36-1.141,1.74,0,8.281,6.42,10.5,10.981,10.5a16.046,16.046,0,0,0,6.48-1.44c.3,0,.48.36.48.481,0,.3-5.1,4.079-9.961,4.079-4.919,0-12.24-2.4-12.24-12.42,0-8.46,5.7-13.5,11.16-13.5a13.342,13.342,0,0,1,9.12,4.5,9.143,9.143,0,0,1,1.98,3.119c0,.24-.839.48-2.461.84" transform="translate(-18.84 -8.975)" fill="#003262"/><path d="M122.171,51.243c-.84,0-1.56-2.46-4.56-2.46-3.479,0-4.8,1.44-4.8,3.959V65.1c0,2.94.18,2.94,4.62,2.94,1.56,0,1.62.18,1.62.72,0,.661-.06.6-1.62.6-.84,0-4.859-.3-6.78-.3-2.04,0-4.08.3-4.92.3-1.381,0-1.5,0-1.5-.6s.06-.72,1.5-.72c2.46,0,2.64-.06,2.64-.9V50.7c0-4.08.12-4.2-3.24-4.2-1.081,0-1.081.06-1.081-.6,0-.721-.06-.9.961-.9,2.039,0,3.18.12,4.38.12.96,0,2.1-.3,3.06-.3.24,0,.48.18.48.661,0,.3-.12,1.62-.12,1.8,0,.54.06.96.3.96.9,0,3.72-3.121,6.539-3.121,1.081,0,3.841,1.321,3.841,2.881,0,.6-.96,3.24-1.32,3.24" transform="translate(-31.189 -9.194)" fill="#003262"/><path d="M160.238,60.482c-.72,0-1.5-.06-2.039-.06-.72,0-2.52.06-3.36.06-1.081,0-1.621-1.5-4.141-4.38s-5.041-6.66-5.4-6.66a11.058,11.058,0,0,0-2.1,1.26c-.96.6-1.8,1.021-1.8,1.561v3.779c0,2.819-.12,2.819,3.6,2.819,1.38,0,1.62.3,1.62.78,0,.6-.3.6-1.62.6-.9,0-3.659-.12-5.579-.12-2.041,0-4.26.12-5.1.12-1.38,0-1.74-.06-1.74-.6,0-.48.3-.78,1.74-.78,2.04,0,2.58,0,2.58-.9,0-1.739.18-19.5.18-32.16,0-4.26-.48-4.8-2.1-4.8-2.46,0-2.7-.18-2.7-.6,0-.6.12-.84.78-.84a36.765,36.765,0,0,0,8.4-1.32c.3,0,.42.18.42.54,0,.78-.12,3.3-.12,5.221,0,9.12-.36,15.84-.36,25.619,0,.24.06.42.24.42,1.5,0,7.741-5.519,9.661-7.32,2.34-2.219,2.88-3.24,2.88-4.5,0-.96-.181-1.08-2.82-1.08-.9,0-1.2-.12-1.2-.66,0-.481.3-.6,1.081-.6.6,0,1.739.18,2.459.18.78,0,4.26-.18,4.98-.18.481,0,.721.06.721.24,0,.541-2.04,3.121-3.9,4.92-3,2.941-6.72,5.58-6.72,6,0,.54,1.079,1.68,5.28,6.72,2.041,2.46,3.96,5.4,6,5.4,1.439,0,1.92.3,1.92.78,0,.42-.42.541-1.741.541" transform="translate(-40.876 -0.072)" fill="#003262"/><path d="M185.133,45.444c-4.56,0-6,6.839-6,7.68,0,.3,0,.36.72.36,3.119,0,6.358-.781,10.86-1.5.659-.12.72-.24.72-.6,0-1.5-3.54-5.939-6.3-5.939m9.24,7.2a93.2,93.2,0,0,1-14.4,2.1c-.96.06-1.14.36-1.14,1.74,0,8.281,6.419,10.5,10.979,10.5a16.06,16.06,0,0,0,6.481-1.44c.3,0,.48.36.48.481,0,.3-5.1,4.079-9.96,4.079-4.92,0-12.24-2.4-12.24-12.42,0-8.46,5.7-13.5,11.16-13.5a13.347,13.347,0,0,1,9.121,4.5,9.165,9.165,0,0,1,1.979,3.119c0,.24-.839.48-2.46.84" transform="translate(-55.391 -8.975)" fill="#003262"/><path d="M219.158,60.21c-.9,0-2.219-.121-3.3-.121-2.039,0-5.219.121-6.06.121-1.38,0-1.5-.121-1.5-.6,0-.42.06-.78,1.5-.78,2.461,0,3.48.06,3.48-1.02V24.75c0-3.78-.36-3.78-3.059-3.78-1.08,0-1.681-.119-1.681-.781,0-.719.48-.659,1.5-.719a31.855,31.855,0,0,0,7.32-1.32c.3,0,.6.3.6.96,0,.721-.3,2.882-.3,4.681,0,22.861-.3,27.6-.3,29.34,0,4.98.419,5.64,1.5,5.64,3,0,2.88.359,2.88.841,0,.6-.421.6-2.58.6" transform="translate(-66.963 -0.041)" fill="#003262"/><path d="M237.821,45.444c-4.56,0-6,6.839-6,7.68,0,.3,0,.36.72.36,3.121,0,6.36-.781,10.861-1.5.659-.12.721-.24.721-.6,0-1.5-3.542-5.939-6.3-5.939m9.24,7.2a93.181,93.181,0,0,1-14.4,2.1c-.96.06-1.14.36-1.14,1.74,0,8.281,6.421,10.5,10.98,10.5a16.038,16.038,0,0,0,6.48-1.44c.3,0,.48.36.48.481,0,.3-5.1,4.079-9.96,4.079-4.921,0-12.241-2.4-12.241-12.42,0-8.46,5.7-13.5,11.161-13.5a13.342,13.342,0,0,1,9.12,4.5A9.155,9.155,0,0,1,249.52,51.8c0,.24-.84.48-2.459.84" transform="translate(-73.47 -8.975)" fill="#003262"/><path d="M285.651,46.475c-1.32,0-3.96,7.2-8.7,18.72-3.782,9.179-6.481,14.04-8.4,18-.659,1.32-1.381,1.38-2.7,1.56-1.8.24-2.219.72-3.54.72-1.021,0-1.62-.3-1.62-.6,0-.36,2.82-.72,4.86-3.3,2.16-2.7,7.32-9.78,7.32-11.579,0-.661-4.8-11.762-8.1-19.561-1.5-3.6-1.921-3.9-3-3.9-1.2,0-1.26-.06-1.26-.6s.179-.841,1.26-.841c1.679,0,2.1.12,3.539.12,1.68,0,3.779-.18,5.7-.18,1.26,0,1.5.24,1.5.9,0,.54-.24.6-1.5.6-1.439,0-1.8.36-1.8,1.74,0,1.74,1.56,3.84,5.159,13.08.481,1.26,1.2,2.28,1.441,2.28.419,0,.78-.84,1.739-3.661,1.439-4.319,3.6-10.56,3.6-11.4,0-1.8,0-2.16-2.04-2.16-1.859,0-2.1,0-2.1-.6,0-.781.179-.781,1.26-.781,1.62,0,2.7.12,4.321.12.9,0,2.52-.24,3.36-.24.96,0,1.26.06,1.26.721,0,.54-.84.84-1.56.84" transform="translate(-84.881 -9.225)" fill="#003262"/><path d="M24.053,101.069a2.66,2.66,0,0,1-2.963-2.916V92.92h1.393v5.3c0,1.007.423,1.662,1.571,1.662s1.557-.656,1.557-1.651V92.92H27v5.222a2.659,2.659,0,0,1-2.951,2.928" transform="translate(-2.721 -25.699)" fill="#003262"/><path d="M37.869,100.935l-3.384-5.387h-.023v5.387H33.068V93.042l1.346-.14,3.267,5.282h.036v-5.27H39.11v8.022Z" transform="translate(-6.832 -25.693)" fill="#003262"/><rect width="1.393" height="8.021" transform="translate(34.267 67.221)" fill="#003262"/><path d="M53.8,100.941H52.264L49.5,92.919h1.475l1.534,4.474s.152.468.539,1.838h.07c.4-1.37.55-1.827.55-1.827L55.2,92.919h1.37Z" transform="translate(-12.471 -25.699)" fill="#003262"/><path d="M67.205,100.935H62.334V92.9h4.777v1.183H63.727V96.3h3.01V97.48h-3.01v2.272H67.31Z" transform="translate(-16.875 -25.693)" fill="#003262"/><path d="M75.266,94.113H74.118v2.448h1.171a1.117,1.117,0,0,0,1.23-1.253c0-.75-.3-1.2-1.253-1.2m1.662,6.828L75.817,98.68c-.234-.479-.527-.948-1.031-.948h-.667v3.209H72.725V92.919H75.3c1.768,0,2.646.984,2.646,2.377a2.2,2.2,0,0,1-1.511,2.179V97.5a1.261,1.261,0,0,1,.492.55l1.534,2.893Z" transform="translate(-20.44 -25.699)" fill="#003262"/><path d="M85.567,101a4.6,4.6,0,0,1-2.646-.889l.585-1.031a3.983,3.983,0,0,0,2.061.738c.925,0,1.382-.516,1.382-1.112,0-1.5-3.548-1.019-3.548-3.712A2.36,2.36,0,0,1,86,92.724a4.481,4.481,0,0,1,2.33.713l-.5,1.008A3.863,3.863,0,0,0,86,93.906c-.773,0-1.171.434-1.171,1.031,0,1.815,3.548,1,3.548,3.724A2.577,2.577,0,0,1,85.567,101" transform="translate(-23.939 -25.632)" fill="#003262"/><rect width="1.394" height="8.021" transform="translate(66.099 67.221)" fill="#003262"/><path d="M103.858,94.1h-2.026v6.838h-1.393V94.113h-2.12V92.919h5.644Z" transform="translate(-29.223 -25.699)" fill="#003262"/><path d="M112.223,97.509v3.432h-1.394V97.509l-2.529-4.59h1.569l1.065,2.284s.152.292.574,1.182h.035c.4-.89.539-1.182.539-1.182l1.136-2.284h1.534Z" transform="translate(-32.648 -25.699)" fill="#003262"/><path d="M128.847,93.906c-1.381,0-2.061,1.195-2.061,2.939s.68,2.974,2.061,2.974S130.9,98.6,130.9,96.858s-.667-2.951-2.049-2.951m0,7.1c-2.424,0-3.489-1.85-3.489-4.145,0-2.413,1.077-4.134,3.489-4.134s3.49,1.721,3.49,4.134c0,2.295-1.066,4.145-3.49,4.145" transform="translate(-38.502 -25.632)" fill="#003262"/><path d="M140.1,94.084V96.3h2.951V97.48H140.1v3.454h-1.393V92.9h4.683v1.183Z" transform="translate(-43.083 -25.693)" fill="#003262"/><path d="M157.37,101c-2.47,0-3.548-1.674-3.548-4.134,0-2.412,1.183-4.145,3.595-4.145a4.022,4.022,0,0,1,2.669,1.031l-.725.936a2.86,2.86,0,0,0-1.944-.784c-1.416,0-2.166,1.065-2.166,2.951s.7,2.962,2.189,2.962a3.217,3.217,0,0,0,2.12-.925l.715.914a4.305,4.305,0,0,1-2.9,1.194" transform="translate(-48.269 -25.632)" fill="#003262"/><path d="M168.957,96.238s-.094-.256-.644-1.919h-.023c-.539,1.662-.633,1.919-.633,1.919l-.62,1.77h2.541Zm1.639,4.7L169.93,99H166.7l-.668,1.932h-1.3l2.822-7.9,1.627-.129,2.846,8.034Z" transform="translate(-52.013 -25.693)" fill="#003262"/><path d="M182.307,100.941h-4.743V92.919h1.393v6.839h3.455Z" transform="translate(-56.417 -25.699)" fill="#003262"/><rect width="1.393" height="8.021" transform="translate(127.353 67.221)" fill="#003262"/><path d="M193.287,94.084V96.3h2.951V97.48h-2.951v3.454h-1.394V92.9h4.684v1.183Z" transform="translate(-61.334 -25.693)" fill="#003262"/><path d="M203.885,93.906c-1.382,0-2.061,1.195-2.061,2.939s.679,2.974,2.061,2.974,2.049-1.217,2.049-2.962-.667-2.951-2.049-2.951m0,7.1c-2.424,0-3.49-1.85-3.49-4.145,0-2.413,1.077-4.134,3.49-4.134s3.489,1.721,3.489,4.134c0,2.295-1.065,4.145-3.489,4.145" transform="translate(-64.251 -25.632)" fill="#003262"/><path d="M215.4,94.113h-1.148v2.448h1.171a1.117,1.117,0,0,0,1.23-1.253c0-.75-.3-1.2-1.253-1.2m1.662,6.828-1.113-2.261c-.233-.479-.527-.948-1.03-.948h-.668v3.209h-1.393V92.919h2.577c1.768,0,2.646.984,2.646,2.377a2.194,2.194,0,0,1-1.51,2.179V97.5a1.259,1.259,0,0,1,.491.55l1.534,2.893Z" transform="translate(-68.527 -25.699)" fill="#003262"/><path d="M228.047,100.935l-3.383-5.387h-.024v5.387h-1.393V93.042l1.347-.14,3.266,5.282h.036v-5.27h1.393v8.022Z" transform="translate(-72.093 -25.693)" fill="#003262"/><rect width="1.393" height="8.021" transform="translate(158.949 67.221)" fill="#003262"/><path d="M243.193,96.238s-.095-.256-.645-1.919h-.023c-.539,1.662-.633,1.919-.633,1.919l-.621,1.77h2.541Zm1.638,4.7L244.165,99h-3.232l-.667,1.932h-1.3l2.822-7.9,1.628-.129,2.845,8.034Z" transform="translate(-77.487 -25.693)" fill="#003262"/></g><text transform="translate(319 99)" fill="#e09e19" font-size="23" font-family="Raleway-Regular, Raleway" letter-spacing="-0.034em"><tspan x="0" y="22">Executive</tspan><tspan x="0" y="49">Education</tspan></text></g></svg>