<svg xmlns="http://www.w3.org/2000/svg" width="260.69" height="55" viewBox="0 0 260.69 55"><g transform="translate(-110 -7627)"><g transform="translate(110 7627)"><g transform="translate(0 4.14)"><path d="M24.391,34.005c-1.477,0-1.9.211-1.9,1.372v9.438c0,.475.158,3.427.633,3.955.58.633,2.267,1,3.955,1,4.006,0,6.959-2.742,6.959-7.329,0-4.746-3.9-8.437-9.648-8.437M26.13,19.3c-3.48,0-3.638.474-3.638,1.529V32.266c0,.843.685.738,1.951.738a42.466,42.466,0,0,1,5.431.316c1.529-1.16,3.269-2.162,3.269-6.327,0-2.636-2.215-7.7-7.013-7.7m.686,31.425c-2.215,0-4.429-.527-6.749-.527-2.215,0-3.374.211-5.062.211-.527,0-.9-.053-.9-.58s.316-.633,1.476-.633c2.373,0,2.479-.1,2.479-.9V24.041c0-4.165-.844-4.639-2.32-4.639-2.373,0-2.584-.053-2.584-.686,0-.369.158-.422,1.054-.422,1.635,0,3.269.053,5.115.053,1.107,0,3.638-.316,8.383-.316,6.855,0,9.808,3.532,9.808,7.276s-2.267,5.589-3.955,6.749A18.106,18.106,0,0,0,31.4,33.479c0,.105,1,.369,2.057.9,2.478,1.266,5.589,3.058,5.589,7.646,0,5.905-4.9,8.7-12.233,8.7" transform="translate(-13.16 -18.03)" fill="#fff"/><path d="M76.132,45.147c-3.485,0-4.586,5.227-4.586,5.87,0,.229,0,.275.551.275a57.9,57.9,0,0,0,8.3-1.147c.5-.091.551-.183.551-.458,0-1.146-2.706-4.54-4.816-4.54m7.062,5.5a71.223,71.223,0,0,1-11.006,1.606c-.734.046-.872.275-.872,1.33,0,6.329,4.907,8.025,8.393,8.025a12.265,12.265,0,0,0,4.953-1.1c.229,0,.367.275.367.368a13,13,0,0,1-7.614,3.118c-3.76,0-9.355-1.834-9.355-9.493,0-6.466,4.357-10.319,8.53-10.319a10.2,10.2,0,0,1,6.971,3.44,6.988,6.988,0,0,1,1.514,2.384c0,.184-.642.367-1.881.642" transform="translate(-40.498 -31.053)" fill="#fff"/><path d="M117.9,49.73c-.642,0-1.192-1.88-3.486-1.88-2.659,0-3.668,1.1-3.668,3.026v9.448c0,2.247.138,2.247,3.531,2.247,1.192,0,1.238.138,1.238.55,0,.505-.046.459-1.238.459-.642,0-3.714-.23-5.182-.23-1.559,0-3.118.23-3.76.23-1.055,0-1.147,0-1.147-.459s.046-.55,1.147-.55c1.88,0,2.018-.046,2.018-.688V49.317c0-3.118.091-3.21-2.476-3.21-.826,0-.826.046-.826-.459,0-.551-.046-.688.735-.688,1.559,0,2.43.091,3.348.091.733,0,1.6-.229,2.339-.229.184,0,.367.138.367.505,0,.229-.092,1.238-.092,1.376,0,.413.046.733.229.733.688,0,2.843-2.385,5-2.385.826,0,2.936,1.01,2.936,2.2,0,.458-.733,2.476-1.009,2.476" transform="translate(-58.418 -31.372)" fill="#fff"/><path d="M153.649,50.527c-.55,0-1.146-.046-1.558-.046-.55,0-1.926.046-2.568.046-.826,0-1.239-1.147-3.165-3.348s-3.853-5.091-4.128-5.091a8.453,8.453,0,0,0-1.605.963c-.734.459-1.376.781-1.376,1.193v2.889c0,2.155-.092,2.155,2.751,2.155,1.055,0,1.238.229,1.238.6,0,.459-.229.459-1.238.459-.688,0-2.8-.092-4.264-.092-1.56,0-3.256.092-3.9.092-1.055,0-1.33-.046-1.33-.459,0-.367.229-.6,1.33-.6,1.559,0,1.972,0,1.972-.688,0-1.329.138-14.9.138-24.581,0-3.256-.367-3.668-1.605-3.668-1.88,0-2.063-.138-2.063-.459,0-.458.091-.642.6-.642a28.1,28.1,0,0,0,6.42-1.009c.229,0,.321.138.321.413,0,.6-.092,2.523-.092,3.99,0,6.97-.275,12.107-.275,19.582,0,.184.046.321.184.321,1.146,0,5.917-4.219,7.384-5.6,1.788-1.7,2.2-2.476,2.2-3.439,0-.733-.138-.825-2.155-.825-.688,0-.918-.092-.918-.5,0-.368.229-.459.826-.459.458,0,1.329.138,1.88.138.6,0,3.256-.138,3.807-.138.367,0,.551.046.551.184,0,.413-1.559,2.385-2.981,3.761-2.293,2.248-5.136,4.265-5.136,4.586,0,.413.825,1.284,4.035,5.136,1.56,1.88,3.027,4.127,4.586,4.127,1.1,0,1.467.23,1.467.6,0,.321-.321.413-1.33.413" transform="translate(-72.475 -18.135)" fill="#fff"/><path d="M182.645,45.147c-3.485,0-4.585,5.227-4.585,5.87,0,.229,0,.275.55.275a57.941,57.941,0,0,0,8.3-1.147c.5-.091.55-.183.55-.458,0-1.146-2.706-4.54-4.816-4.54m7.063,5.5A71.232,71.232,0,0,1,178.7,52.255c-.734.046-.871.275-.871,1.33,0,6.329,4.906,8.025,8.392,8.025a12.275,12.275,0,0,0,4.954-1.1c.228,0,.367.275.367.368a13,13,0,0,1-7.613,3.118c-3.761,0-9.355-1.834-9.355-9.493,0-6.466,4.356-10.319,8.53-10.319a10.2,10.2,0,0,1,6.971,3.44,7.005,7.005,0,0,1,1.513,2.384c0,.184-.642.367-1.88.642" transform="translate(-93.536 -31.053)" fill="#fff"/><path d="M216.6,50.3c-.688,0-1.7-.092-2.523-.092-1.559,0-3.989.092-4.632.092-1.055,0-1.147-.092-1.147-.459,0-.321.046-.6,1.147-.6,1.881,0,2.66.046,2.66-.78V23.194c0-2.889-.275-2.889-2.338-2.889-.825,0-1.285-.091-1.285-.6,0-.55.367-.5,1.147-.55a24.348,24.348,0,0,0,5.595-1.009c.229,0,.458.229.458.733,0,.551-.228,2.2-.228,3.578,0,17.473-.229,21.1-.229,22.426,0,3.806.32,4.311,1.146,4.311,2.292,0,2.2.275,2.2.643,0,.459-.322.459-1.972.459" transform="translate(-110.328 -18.089)" fill="#fff"/><path d="M235.332,45.147c-3.485,0-4.586,5.227-4.586,5.87,0,.229,0,.275.55.275a57.905,57.905,0,0,0,8.3-1.147c.5-.091.551-.183.551-.458,0-1.146-2.708-4.54-4.817-4.54m7.063,5.5a71.222,71.222,0,0,1-11.007,1.606c-.733.046-.872.275-.872,1.33,0,6.329,4.908,8.025,8.393,8.025a12.259,12.259,0,0,0,4.953-1.1c.229,0,.367.275.367.368a13,13,0,0,1-7.613,3.118c-3.761,0-9.356-1.834-9.356-9.493,0-6.466,4.357-10.319,8.531-10.319a10.2,10.2,0,0,1,6.971,3.44,7,7,0,0,1,1.513,2.384c0,.184-.642.367-1.88.642" transform="translate(-119.771 -31.053)" fill="#fff"/><path d="M279.727,46.107c-1.009,0-3.027,5.5-6.649,14.308-2.891,7.016-4.954,10.731-6.421,13.758-.5,1.009-1.055,1.055-2.064,1.192a23.51,23.51,0,0,1-2.706.55c-.781,0-1.239-.229-1.239-.458,0-.275,2.155-.55,3.715-2.523,1.651-2.063,5.595-7.475,5.595-8.85,0-.505-3.668-8.99-6.191-14.952-1.146-2.751-1.468-2.981-2.292-2.981-.918,0-.963-.046-.963-.458s.137-.643.963-.643c1.283,0,1.605.091,2.705.091,1.284,0,2.889-.138,4.357-.138.963,0,1.146.184,1.146.689,0,.413-.183.458-1.146.458-1.1,0-1.376.275-1.376,1.33,0,1.33,1.192,2.935,3.944,10,.368.963.918,1.743,1.1,1.743.32,0,.6-.642,1.329-2.8,1.1-3.3,2.752-8.071,2.752-8.713,0-1.376,0-1.651-1.559-1.651-1.421,0-1.605,0-1.605-.459,0-.6.137-.6.963-.6,1.238,0,2.063.092,3.3.092.688,0,1.926-.183,2.568-.183.734,0,.963.046.963.551,0,.413-.642.642-1.192.642" transform="translate(-136.329 -31.417)" fill="#fff"/><path d="M23.355,99.149A2.033,2.033,0,0,1,21.09,96.92v-4h1.064v4.054c0,.77.323,1.271,1.2,1.271s1.19-.5,1.19-1.262V92.92H25.61v3.991a2.033,2.033,0,0,1-2.255,2.238" transform="translate(-17.109 -55.321)" fill="#fff"/><path d="M36.737,99.042l-2.587-4.117h-.018v4.117H33.068V93.009L34.1,92.9l2.5,4.037h.027V92.91h1.065v6.132Z" transform="translate(-23.073 -55.312)" fill="#fff"/><rect width="1.065" height="6.131" transform="translate(16.133 37.599)" fill="#fff"/><path d="M52.785,99.051H51.613L49.5,92.919h1.127L51.8,96.338s.116.357.412,1.4h.054c.3-1.047.421-1.4.421-1.4l1.172-3.428h1.047Z" transform="translate(-31.256 -55.321)" fill="#fff"/><path d="M66.057,99.042H62.334V92.9h3.651v.9H63.4V95.5h2.3v.9H63.4v1.737h2.739Z" transform="translate(-37.646 -55.312)" fill="#fff"/><path d="M74.667,93.832H73.79V95.7h.9a.854.854,0,0,0,.94-.957c0-.573-.232-.914-.957-.914m1.271,5.219-.85-1.728c-.179-.367-.4-.724-.788-.724h-.51v2.453H72.725V92.919h1.969a1.765,1.765,0,0,1,2.023,1.817A1.678,1.678,0,0,1,75.562,96.4v.018a.964.964,0,0,1,.376.42l1.173,2.212Z" transform="translate(-42.82 -55.321)" fill="#fff"/><path d="M84.943,99.051a3.517,3.517,0,0,1-2.022-.68l.447-.788a3.044,3.044,0,0,0,1.575.564c.707,0,1.056-.394,1.056-.85,0-1.146-2.712-.779-2.712-2.837a1.8,1.8,0,0,1,1.987-1.736,3.425,3.425,0,0,1,1.781.545l-.385.77a2.952,2.952,0,0,0-1.4-.412c-.591,0-.9.331-.9.788,0,1.387,2.712.761,2.712,2.846a1.969,1.969,0,0,1-2.148,1.79" transform="translate(-47.897 -55.224)" fill="#fff"/><rect width="1.065" height="6.131" transform="translate(40.464 37.599)" fill="#fff"/><path d="M102.553,93.823H101V99.05H99.939V93.832h-1.62v-.913h4.314Z" transform="translate(-55.565 -55.321)" fill="#fff"/><path d="M111.3,96.427v2.623h-1.065V96.427L108.3,92.919h1.2l.814,1.746s.116.223.439.9h.027c.3-.68.412-.9.412-.9l.868-1.746h1.172Z" transform="translate(-60.535 -55.321)" fill="#fff"/><path d="M128.025,93.628c-1.056,0-1.575.913-1.575,2.247s.52,2.273,1.575,2.273,1.566-.93,1.566-2.264-.51-2.256-1.566-2.256m0,5.424c-1.853,0-2.667-1.414-2.667-3.168,0-1.844.823-3.159,2.667-3.159s2.667,1.315,2.667,3.159c0,1.754-.815,3.168-2.667,3.168" transform="translate(-69.029 -55.224)" fill="#fff"/><path d="M139.773,93.805V95.5h2.256v.9h-2.256v2.64h-1.065V92.9h3.58v.9Z" transform="translate(-75.677 -55.312)" fill="#fff"/><path d="M156.534,99.051c-1.888,0-2.712-1.28-2.712-3.159,0-1.844.9-3.168,2.748-3.168a3.074,3.074,0,0,1,2.04.788l-.554.715a2.186,2.186,0,0,0-1.486-.6c-1.082,0-1.655.814-1.655,2.256s.536,2.264,1.673,2.264a2.459,2.459,0,0,0,1.62-.707l.546.7a3.291,3.291,0,0,1-2.22.913" transform="translate(-83.202 -55.224)" fill="#fff"/><path d="M167.961,95.451s-.072-.2-.492-1.466h-.018c-.412,1.271-.483,1.466-.483,1.466l-.474,1.353h1.942Zm1.253,3.59-.51-1.477h-2.47l-.511,1.477h-.994L166.887,93l1.244-.1,2.175,6.141Z" transform="translate(-88.634 -55.312)" fill="#fff"/><path d="M181.189,99.05h-3.625V92.919h1.065v5.227h2.641Z" transform="translate(-95.025 -55.321)" fill="#fff"/><rect width="1.065" height="6.131" transform="translate(87.282 37.599)" fill="#fff"/><path d="M192.958,93.805V95.5h2.255v.9h-2.255v2.64h-1.065V92.9h3.581v.9Z" transform="translate(-102.16 -55.312)" fill="#fff"/><path d="M203.062,93.628c-1.056,0-1.575.913-1.575,2.247s.519,2.273,1.575,2.273,1.566-.93,1.566-2.264-.51-2.256-1.566-2.256m0,5.424c-1.853,0-2.667-1.414-2.667-3.168,0-1.844.823-3.159,2.667-3.159s2.667,1.315,2.667,3.159c0,1.754-.814,3.168-2.667,3.168" transform="translate(-106.393 -55.224)" fill="#fff"/><path d="M214.8,93.832h-.878V95.7h.9a.854.854,0,0,0,.94-.957c0-.573-.232-.914-.958-.914m1.271,5.219-.85-1.728c-.178-.367-.4-.724-.787-.724h-.511v2.453h-1.065V92.919h1.97a1.765,1.765,0,0,1,2.022,1.817,1.677,1.677,0,0,1-1.154,1.665v.018a.962.962,0,0,1,.376.42l1.173,2.212Z" transform="translate(-112.597 -55.321)" fill="#fff"/><path d="M226.915,99.042l-2.586-4.117h-.019v4.117h-1.065V93.009l1.03-.107,2.5,4.037h.027V92.91h1.065v6.132Z" transform="translate(-117.772 -55.312)" fill="#fff"/><rect width="1.065" height="6.131" transform="translate(111.433 37.599)" fill="#fff"/><path d="M242.2,95.451s-.072-.2-.493-1.466h-.018c-.412,1.271-.483,1.466-.483,1.466l-.474,1.353h1.942Zm1.252,3.59-.51-1.477h-2.47l-.51,1.477h-.994L241.122,93l1.244-.1,2.175,6.141Z" transform="translate(-125.599 -55.312)" fill="#fff"/></g><text transform="translate(156.69 0)" fill="#fff" font-size="23" font-family="Raleway-Regular, Raleway" letter-spacing="-0.034em"><tspan x="0" y="22">Executive</tspan><tspan x="0" y="49">Education</tspan></text></g></g></svg>